<?xml version="1.0" encoding="utf-8"?>
<!-- Generator: Adobe Illustrator 16.0.0, SVG Export Plug-In . SVG Version: 6.00 Build 0)  -->
<!DOCTYPE svg PUBLIC "-//W3C//DTD SVG 1.1//EN" "http://www.w3.org/Graphics/SVG/1.1/DTD/svg11.dtd">
<svg fill="#fff" version="1.1" id="Layer_1" xmlns="http://www.w3.org/2000/svg" xmlns:xlink="http://www.w3.org/1999/xlink" x="0px" y="0px"
	 width="80px" height="80px" viewBox="24 24 80 80" enable-background="new 24 24 80 80" xml:space="preserve">
<path d="M101.971,63.241c0-21.07-17.143-38.211-38.211-38.211c-21.07,0-38.211,17.142-38.211,38.211
	c0,13.404,6.943,25.209,17.414,32.031c0.214,0.141,0.429,0.277,0.646,0.414c0.23,0.146,0.465,0.287,0.699,0.426
	c0.352,0.211,0.706,0.414,1.064,0.613c0.127,0.07,0.254,0.14,0.383,0.209c0.472,0.254,0.949,0.498,1.435,0.734
	c0.013,0.006,0.022,0.012,0.035,0.018c5.336,2.592,11.416,4.068,17.396,4.068c3.015,0,6.157-0.652,9.17-1.648
	C90.009,95.688,101.971,80.84,101.971,63.241z M63.76,28.03c19.414,0,35.211,15.796,35.211,35.211
	c0,9.643-3.898,18.389-10.198,24.754c-2.54-1.895-5.604-3.105-8.353-4.189c-3.59-1.416-6.7-2.646-7.639-4.812
	c-0.147-1.739-0.136-3.089-0.121-4.642c0.002-0.244,0.004-0.492,0.006-0.744c1.373-1.396,2.787-4.385,3.299-7.045
	c1.072-0.549,2.412-1.908,2.814-5.268c0.199-1.667-0.287-2.945-0.957-3.783c0.887-3.015,2.729-10.891-0.406-15.935
	c-1.312-2.111-3.299-3.439-5.916-3.955c-1.437-1.823-4.198-2.817-7.912-2.816c-5.621,0.104-9.734,1.82-12.225,5.102
	c-2.953,3.892-3.5,9.796-1.627,17.556c-0.689,0.837-1.201,2.136-0.996,3.833c0.404,3.375,1.717,4.739,2.817,5.284
	c0.522,2.653,1.97,5.644,3.377,7.038c0.001,0.248,0.004,0.49,0.006,0.73c0.015,1.553,0.024,2.902-0.122,4.643
	c-0.939,2.166-4.062,3.395-7.666,4.812c-2.761,1.086-5.845,2.301-8.396,4.201c-6.307-6.365-10.209-15.117-10.209-24.765
	C28.549,43.826,44.345,28.03,63.76,28.03z M63.76,98.453c-6.651,0-12.876-1.854-18.188-5.072c-0.058-0.034-0.113-0.069-0.171-0.104
	c-0.335-0.207-0.665-0.422-0.993-0.637c-0.312-0.211-0.623-0.42-0.927-0.639c-0.019-0.014-0.037-0.025-0.055-0.039
	c-0.833-0.604-1.628-1.24-2.38-1.911c2.127-1.458,4.701-2.471,7.205-3.454c4.184-1.646,8.135-3.201,9.447-6.729l0.07-0.188
	l0.018-0.199c0.183-1.992,0.168-3.528,0.154-5.155c-0.004-0.456-0.008-0.925-0.008-1.418l0.025-0.896l-0.807-0.421
	c-0.671-0.45-2.468-3.544-2.763-6.321l-0.132-1.234l-1.239-0.102c-0.246-0.02-1.015-0.613-1.3-2.994
	c-0.151-1.254,0.465-1.695,0.47-1.698l0.951-0.58l-0.28-1.078c-1.857-7.155-1.549-12.64,0.895-15.86
	c1.908-2.513,5.234-3.831,9.863-3.917c2.883,0,5.014,0.722,5.701,1.932l0.365,0.643l0.732,0.102c2.054,0.285,3.511,1.162,4.453,2.68
	c2.354,3.791,0.994,10.788-0.182,14.324l-0.324,1.123l0.969,0.633c0.006,0.004,0.619,0.441,0.47,1.699
	c-0.285,2.379-1.054,2.973-1.302,2.992l-1.237,0.102l-0.132,1.234c-0.299,2.795-2.039,5.881-2.658,6.309l-0.805,0.421v0.908
	c0,0.493-0.004,0.963-0.008,1.42c-0.016,1.626-0.029,3.161,0.151,5.153l0.019,0.199l0.069,0.188
	c1.312,3.528,5.249,5.083,9.418,6.729c2.498,0.985,5.065,2,7.185,3.461c-2.524,1.959-8.014,5.357-13.916,7.274
	C69.764,98.063,66.807,98.453,63.76,98.453z"/>
</svg>
