<?xml version="1.0" encoding="utf-8"?>
<!-- Generator: Adobe Illustrator 16.0.0, SVG Export Plug-In . SVG Version: 6.00 Build 0)  -->
<!DOCTYPE svg PUBLIC "-//W3C//DTD SVG 1.1//EN" "http://www.w3.org/Graphics/SVG/1.1/DTD/svg11.dtd">
<svg fill="#fff" version="1.1" id="Layer_1" xmlns="http://www.w3.org/2000/svg" xmlns:xlink="http://www.w3.org/1999/xlink" x="0px" y="0px"
	 width="80px" height="80px" viewBox="24 24 80 80" enable-background="new 24 24 80 80" xml:space="preserve">
<g>
	<g>
		<path d="M64.108,102.37c-21.225,0-38.492-17.267-38.492-38.491c0-21.224,17.268-38.491,38.492-38.491
			c21.224,0,38.49,17.267,38.49,38.491C102.599,85.104,85.332,102.37,64.108,102.37z M64.108,28.388
			c-19.57,0-35.492,15.921-35.492,35.491c0,19.57,15.922,35.491,35.492,35.491c19.569,0,35.49-15.921,35.49-35.491
			C99.599,44.309,83.678,28.388,64.108,28.388z"/>
	</g>
	<path d="M82.005,75.723l-16.89-16.892c0.528-1.091,0.345-2.406-0.465-3.307l8.639-8.639c0.473-0.475,0.673-1.149,0.535-1.805
		c-0.139-0.653-0.591-1.187-1.21-1.428c-0.531-0.207-1.139-0.312-1.806-0.312c-3.048,0-7.523,2.197-12.302,6.034l-0.212-0.212
		c-0.883-0.883-2.297-1.121-3.424-0.574c-0.759-0.742-1.758-1.15-2.819-1.15c-1.078,0-2.092,0.42-2.854,1.183
		c-0.764,0.761-1.184,1.774-1.184,2.854c0,1.064,0.409,2.064,1.151,2.822c-0.551,1.138-0.328,2.52,0.572,3.423l0.213,0.212
		c-1.949,2.438-7.395,9.816-5.722,14.109c0.294,0.76,1.014,1.251,1.834,1.251c0.528,0,1.024-0.205,1.396-0.578l8.639-8.64
		c0.883,0.795,2.224,0.989,3.307,0.467l16.89,16.89c0.766,0.762,1.779,1.182,2.855,1.182c1.08,0,2.094-0.42,2.854-1.182
		C83.577,79.857,83.577,77.297,82.005,75.723z M47.575,66.39c1.078-2.351,2.844-5.017,5.109-7.709l0.765-0.909l-1.881-1.881
		c-0.158-0.158-0.158-0.415,0-0.572l4.324-4.324c0.077-0.076,0.178-0.118,0.287-0.118c0.109,0,0.211,0.042,0.287,0.117l1.88,1.882
		l0.908-0.765c4.402-3.703,8.705-6.043,11.326-6.176l-9.587,9.587l1.719,1.718c0.158,0.158,0.158,0.415,0,0.572l-4.326,4.325
		c-0.151,0.153-0.417,0.154-0.572,0l-1.719-1.718l-9.586,9.587C46.562,69.05,46.93,67.794,47.575,66.39z M50.886,52.338
		c-0.129-0.173-0.217-0.372-0.258-0.584c-0.018-0.092-0.027-0.185-0.027-0.276c0.001-0.139,0.021-0.278,0.062-0.416
		c0.025-0.085,0.06-0.173,0.104-0.258c0.069-0.129,0.156-0.248,0.258-0.351c0.175-0.174,0.381-0.297,0.613-0.365
		c0.133-0.04,0.272-0.06,0.413-0.06c0.139,0,0.278,0.02,0.412,0.06c0.162,0.048,0.312,0.124,0.45,0.225L50.886,52.338z
		 M63.402,60.78l16.773,16.774c0.136,0.137,0.244,0.298,0.318,0.478c0.052,0.129,0.085,0.266,0.099,0.405
		c0.009,0.094,0.009,0.188,0,0.28c-0.014,0.142-0.047,0.278-0.097,0.403c-0.076,0.183-0.185,0.344-0.32,0.48
		c-0.139,0.139-0.301,0.247-0.476,0.319c-0.089,0.033-0.178,0.062-0.269,0.079c-0.478,0.088-0.965-0.057-1.305-0.398L61.354,62.829
		L63.402,60.78z"/>
</g>
</svg>
