<?xml version="1.0" encoding="utf-8"?>
<!-- Generator: Adobe Illustrator 16.0.0, SVG Export Plug-In . SVG Version: 6.00 Build 0)  -->
<!DOCTYPE svg PUBLIC "-//W3C//DTD SVG 1.1//EN" "http://www.w3.org/Graphics/SVG/1.1/DTD/svg11.dtd">
<svg fill="#fff" version="1.1" id="Layer_1" xmlns="http://www.w3.org/2000/svg" xmlns:xlink="http://www.w3.org/1999/xlink" x="0px" y="0px"
	 width="80px" height="80px" viewBox="24 24 80 80" enable-background="new 24 24 80 80" xml:space="preserve">
<path d="M63.803,101.43v-1.509l-0.005,1.509C42.956,101.43,26,84.475,26,63.633c0-20.843,16.956-37.799,37.798-37.799
	c20.844,0,37.798,16.957,37.798,37.799C101.596,84.475,84.643,101.43,63.803,101.43z M63.798,28.85
	c-19.179,0-34.782,15.603-34.782,34.783c0,19.179,15.603,34.78,34.782,34.78h0.005c19.178,0,34.776-15.602,34.776-34.78
	C98.579,44.453,82.978,28.85,63.798,28.85z"/>
<g>
	<path d="M63.798,71.405c-0.832,0-1.508-0.676-1.508-1.508v-7.355c0-0.833,0.676-1.508,1.508-1.508c3.974,0,7.206-3.232,7.206-7.206
		c0-3.975-3.232-7.208-7.206-7.208s-7.206,3.234-7.206,7.208c0,0.833-0.676,1.508-1.508,1.508c-0.832,0-1.508-0.676-1.508-1.508
		c0-5.638,4.585-10.225,10.222-10.225c5.638,0,10.222,4.586,10.222,10.225c0,5.125-3.789,9.379-8.714,10.111v5.958
		C65.306,70.729,64.629,71.405,63.798,71.405z"/>
	<circle cx="63.797" cy="79.508" r="2.862"/>
</g>
</svg>
