<?xml version="1.0" encoding="utf-8"?>
<!-- Generator: Adobe Illustrator 16.0.0, SVG Export Plug-In . SVG Version: 6.00 Build 0)  -->
<!DOCTYPE svg PUBLIC "-//W3C//DTD SVG 1.1//EN" "http://www.w3.org/Graphics/SVG/1.1/DTD/svg11.dtd">
<svg fill="#fff" version="1.1" id="Layer_1" xmlns="http://www.w3.org/2000/svg" xmlns:xlink="http://www.w3.org/1999/xlink" x="0px" y="0px"
	 width="80px" height="80px" viewBox="24 24 80 80" enable-background="new 24 24 80 80" xml:space="preserve">
<g>
	<rect x="23.142" y="25.863" fill="none" width="78.137" height="78.137"/>
</g>
<rect x="24.924" y="24.462" fill="none" width="78.076" height="78.075"/>
<path d="M90.281,59.737L78.086,45.269c-0.22-0.262-0.543-0.413-0.888-0.413H50.729c-0.344,0-0.667,0.15-0.888,0.413L37.642,59.737
	c-0.289,0.345-0.353,0.83-0.164,1.237c0.029,0.063,0.073,0.116,0.112,0.171l-0.013,0.011L63.885,92.4l0.077,0.091l26.303-31.239
	c0.001-0.001,0.001-0.001,0.002-0.002l0.015-0.018l0.064-0.077l-0.012-0.01c0.04-0.056,0.083-0.108,0.112-0.172
	C90.637,60.569,90.572,60.083,90.281,59.737z M55.605,59.326l8.356-11.355l8.359,11.355H55.605z M72.974,61.646l-9.012,25.556
	l-9.008-25.556H72.974z M73.946,57.623l-7.69-10.448h9.56L73.946,57.623z M76,59.326l1.906-10.672l8.996,10.672H76z M53.982,57.622
	l-1.867-10.447h9.555L53.982,57.622z M51.929,59.326H41.023l8.999-10.675L51.929,59.326z M60.756,85.081L41.022,61.646h11.473
	L60.756,85.081z M75.434,61.646h11.469L67.171,85.078L75.434,61.646z"/>
<g>
	<path d="M64.057,101.212c-20.723,0-37.582-16.859-37.582-37.582s16.859-37.582,37.582-37.582s37.581,16.859,37.581,37.582
		S84.779,101.212,64.057,101.212z M64.057,29.048c-19.068,0-34.582,15.513-34.582,34.582s15.514,34.582,34.582,34.582
		S98.638,82.698,98.638,63.63S83.125,29.048,64.057,29.048z"/>
</g>
</svg>
